<svg width="1544" height="500" version="1.1" xmlns="http://www.w3.org/2000/svg" xmlns:xlink="http://www.w3.org/1999/xlink">
    <g transform="translate(0 -552.36)">
        <path d="m-1.1913 555.89 140.83-4.5949h1412.9v511.43h-1557.1v-370z" fill="#f2f2f2"/>
        <path d="m1104.8 813.55-270.05-116.06" fill="none" stroke="#434343" stroke-dasharray="5, 5" stroke-width="5"/>
        <path d="m1556.7 951.93-270.05-116.06" fill="none" stroke="#434343" stroke-dasharray="5, 5" stroke-width="5"/>
        <rect x="957.26" y="754.13" width="402.86" height="111.43" ry="14.86" fill="#800080"/>
        <path d="m811.28 670.71-24.55-87.042" fill="none" stroke="#434343" stroke-dasharray="5, 5" stroke-width="5"/>
        <path d="m803.47 674.06 194.17-8.9274" fill="none" stroke="#434343" stroke-dasharray="5, 5" stroke-width="5"/>
        <path d="m642.52 763.1 147.3-78.115" fill="none" stroke="#434343" stroke-dasharray="5, 5" stroke-width="5"/>
        <rect x="691.14" y="639.55" width="213.49" height="75.719" ry="10.098" fill="#7ab51d"/>
        <rect x="1471.2" y="918.53" width="213.49" height="75.719" ry="10.098" fill="#ffb300"/>
        <rect x="600.75" y="737.75" width="110.83" height="48.937" ry="6.5262" fill="#89cb21"/>
        <rect x="721.27" y="568.13" width="110.83" height="48.937" ry="6.5262" fill="#89cb21"/>
        <rect x="928.83" y="637.32" width="110.83" height="48.937" ry="6.5262" fill="#89cb21"/>
    </g>
</svg>
