<svg width="256" height="256" version="1.1" xmlns="http://www.w3.org/2000/svg" xmlns:xlink="http://www.w3.org/1999/xlink">
    <g transform="translate(0 -796.36)">
        <rect y="796.36" width="256" height="256" ry="0" fill="#ffd500"/>
        <path d="m123.6 917.39-23.756-32.531" fill="#ccc" opacity=".99077" stroke="#3f3c3c" stroke-dasharray="1.718,1.718" stroke-width="1.718"/>
        <path d="m120.91 918.54 51.418 36.908" fill="#ccc" opacity=".99077" stroke="#3f3c3c" stroke-dasharray="1.718,1.718" stroke-width="1.718"/>
        <path d="m96.23 967.08 19.991-44.781" fill="#ccc" opacity=".99077" stroke="#3f3c3c" stroke-dasharray="1.718,1.718" stroke-width="1.718"/>
        <path d="m71.554 902.2h112.06c2.53 0 4.5667 2.0368 4.5667 4.5667v25.11c0 2.53-2.0368 4.5667-4.5667 4.5667h-112.06c-2.53 0-4.5667-2.0368-4.5667-4.5667v-25.11c0-2.53 2.0368-4.5667 4.5667-4.5667z" fill="#3f3c3c" opacity=".99077" stroke-width=".60131"/>
        <path d="m80.381 958.36h33.605c1.2426 0 2.243 1.0004 2.243 2.243v12.333c0 1.2426-1.0004 2.243-2.243 2.243h-33.605c-1.2426 0-2.243-1.0004-2.243-2.243v-12.333c0-1.2426 1.0004-2.243 2.243-2.243z" fill="#3f3c3c" opacity=".99077" stroke-width=".60131"/>
        <path d="m81.827 873.54h33.605c1.2426 0 2.243 1.0004 2.243 2.243v12.333c0 1.2426-1.0004 2.243-2.243 2.243h-33.605c-1.2426 0-2.243-1.0004-2.243-2.243v-12.333c0-1.2426 1.0004-2.243 2.243-2.243z" fill="#3f3c3c" opacity=".99077" stroke-width=".60131"/>
        <path d="m153.17 948.88h33.605c1.2426 0 2.243 1.0004 2.243 2.243v12.333c0 1.2426-1.0004 2.243-2.243 2.243h-33.605c-1.2426 0-2.243-1.0004-2.243-2.243v-12.333c0-1.2426 1.0004-2.243 2.243-2.243z" fill="#3f3c3c" opacity=".99077" stroke-width=".60131"/>
    </g>
</svg>
