<?xml version="1.0" encoding="UTF-8" standalone="no"?>
<!-- Created with Inkscape (http://www.inkscape.org/) -->

<svg
   xmlns:dc="http://purl.org/dc/elements/1.1/"
   xmlns:cc="http://creativecommons.org/ns#"
   xmlns:rdf="http://www.w3.org/1999/02/22-rdf-syntax-ns#"
   xmlns:svg="http://www.w3.org/2000/svg"
   xmlns="http://www.w3.org/2000/svg"
   xmlns:xlink="http://www.w3.org/1999/xlink"
   xmlns:sodipodi="http://sodipodi.sourceforge.net/DTD/sodipodi-0.dtd"
   xmlns:inkscape="http://www.inkscape.org/namespaces/inkscape"
   width="1544"
   height="500"
   id="svg2"
   version="1.1"
   inkscape:version="0.48.4 r9939"
   sodipodi:docname="mindcat-banner.svg"
   inkscape:export-filename="/home/bast/Téléchargements/banner-1544x500.png"
   inkscape:export-xdpi="90"
   inkscape:export-ydpi="90">
  <defs
     id="defs4">
    <linearGradient
       id="linearGradient3759">
      <stop
         style="stop-color:#c2ced4;stop-opacity:1;"
         offset="0"
         id="stop3761" />
      <stop
         style="stop-color:#f4f4fa;stop-opacity:1;"
         offset="1"
         id="stop3763" />
    </linearGradient>
    <linearGradient
       id="linearGradient3960-5">
      <stop
         id="stop3962-6"
         offset="0"
         style="stop-color:#ffffff;stop-opacity:1;" />
      <stop
         id="stop3964-5"
         offset="1"
         style="stop-color:#ffffff;stop-opacity:0;" />
    </linearGradient>
    <radialGradient
       gradientTransform="matrix(-0.07008433,2.2837608,-1.994818,-0.06121722,16.676772,-14.18971)"
       gradientUnits="userSpaceOnUse"
       r="1.6851097"
       fy="4.0239768"
       fx="8.083169"
       cy="4.0239768"
       cx="8.083169"
       id="radialGradient3968-3"
       xlink:href="#linearGradient3960-5"
       inkscape:collect="always" />
    <linearGradient
       id="linearGradient3960">
      <stop
         id="stop3962"
         offset="0"
         style="stop-color:#ffffff;stop-opacity:1;" />
      <stop
         id="stop3964"
         offset="1"
         style="stop-color:#cececc;stop-opacity:1;" />
    </linearGradient>
    <radialGradient
       inkscape:collect="always"
       xlink:href="#linearGradient3893"
       id="radialGradient3899"
       cx="1177.2617"
       cy="180.95714"
       fx="1177.2617"
       fy="180.95714"
       r="775.71429"
       gradientTransform="matrix(-1.658264,0.00100383,-1.2071239e-4,-0.19943074,1712.5897,-987.81272)"
       gradientUnits="userSpaceOnUse" />
    <linearGradient
       inkscape:collect="always"
       id="linearGradient3893">
      <stop
         style="stop-color:#999999;stop-opacity:1;"
         offset="0"
         id="stop3895" />
      <stop
         style="stop-color:#999999;stop-opacity:0;"
         offset="1"
         id="stop3897" />
    </linearGradient>
    <linearGradient
       inkscape:collect="always"
       xlink:href="#linearGradient3759-3"
       id="linearGradient3765-8"
       x1="1199.15"
       y1="-2.857156"
       x2="1125.6625"
       y2="259.754"
       gradientUnits="userSpaceOnUse"
       gradientTransform="matrix(1.0018383,0,0,0.99444444,-1.7804626,554.13202)" />
    <linearGradient
       id="linearGradient3759-3">
      <stop
         style="stop-color:#c2ced4;stop-opacity:1;"
         offset="0"
         id="stop3761-9" />
      <stop
         style="stop-color:#f4f4fa;stop-opacity:1;"
         offset="1"
         id="stop3763-4" />
    </linearGradient>
    <filter
       color-interpolation-filters="sRGB"
       inkscape:collect="always"
       id="filter3949"
       x="-0.13584147"
       width="1.271683"
       y="-0.14427084"
       height="1.2885417">
      <feGaussianBlur
         inkscape:collect="always"
         stdDeviation="8.5243825"
         id="feGaussianBlur3951" />
    </filter>
    <linearGradient
       id="linearGradient3893-4">
      <stop
         style="stop-color:#604331;stop-opacity:0"
         offset="0"
         id="stop3895-2" />
      <stop
         style="stop-color:#b88767;stop-opacity:1;"
         offset="1"
         id="stop3897-0" />
    </linearGradient>
    <linearGradient
       id="linearGradient3922">
      <stop
         id="stop3924"
         offset="0"
         style="stop-color:#604331;stop-opacity:1;" />
      <stop
         id="stop3926"
         offset="1"
         style="stop-color:#b88767;stop-opacity:1;" />
    </linearGradient>
    <linearGradient
       id="linearGradient3877-9">
      <stop
         id="stop3879-9"
         offset="0"
         style="stop-color:#604331;stop-opacity:1;" />
      <stop
         id="stop3881-6"
         offset="1"
         style="stop-color:#b88767;stop-opacity:1;" />
    </linearGradient>
    <linearGradient
       gradientUnits="userSpaceOnUse"
       y2="708.31311"
       x2="263.82254"
       y1="776.68951"
       x1="200.07085"
       id="linearGradient3891"
       xlink:href="#linearGradient3877"
       inkscape:collect="always" />
    <linearGradient
       gradientUnits="userSpaceOnUse"
       y2="708.31311"
       x2="263.82254"
       y1="776.68951"
       x1="200.07085"
       id="linearGradient3883"
       xlink:href="#linearGradient3893-1"
       inkscape:collect="always" />
    <linearGradient
       id="linearGradient3877">
      <stop
         id="stop3879"
         offset="0"
         style="stop-color:#604331;stop-opacity:1;" />
      <stop
         id="stop3881"
         offset="1"
         style="stop-color:#b88767;stop-opacity:1;" />
    </linearGradient>
    <linearGradient
       id="linearGradient3893-1">
      <stop
         style="stop-color:#604331;stop-opacity:0"
         offset="0"
         id="stop3895-5" />
      <stop
         style="stop-color:#b88767;stop-opacity:1;"
         offset="1"
         id="stop3897-3" />
    </linearGradient>
  </defs>
  <sodipodi:namedview
     id="base"
     pagecolor="#ffffff"
     bordercolor="#666666"
     borderopacity="1.0"
     inkscape:pageopacity="0.0"
     inkscape:pageshadow="2"
     inkscape:zoom="0.44805771"
     inkscape:cx="931.54638"
     inkscape:cy="285.91509"
     inkscape:document-units="px"
     inkscape:current-layer="layer1"
     showgrid="false"
     inkscape:window-width="1317"
     inkscape:window-height="744"
     inkscape:window-x="49"
     inkscape:window-y="24"
     inkscape:window-maximized="1" />
  <metadata
     id="metadata7">
    <rdf:RDF>
      <cc:Work
         rdf:about="">
        <dc:format>image/svg+xml</dc:format>
        <dc:type
           rdf:resource="http://purl.org/dc/dcmitype/StillImage" />
        <dc:title></dc:title>
      </cc:Work>
    </rdf:RDF>
  </metadata>
  <g
     inkscape:label="Calque 1"
     inkscape:groupmode="layer"
     id="layer1"
     transform="translate(0,-552.36218)">
    <g
       id="g3076"
       transform="translate(-38.214303,427.71933)">
      <g
         transform="matrix(1.1555555,0,0,1.5341701,-162.18106,-181.59051)"
         id="g5">
        <rect
           x="140.349"
           y="118.364"
           width="562.5"
           height="358.5"
           id="rect7"
           style="fill:#7ab51d" />
      </g>
      <g
         transform="translate(-92.090191,-17.154682)"
         id="g9">
        <polygon
           points="648.392,371.53 661.173,351.061 686.2,349.036 669.554,330.892 674.966,307.572 651.902,316.835 630.22,304.446 632.606,328.313 613.798,343.974 638.337,349.468 "
           id="polygon11"
           style="fill:#ffd500" />
        <polygon
           points="623.048,414.88 620.956,396.097 635.679,383.419 616.247,379.507 608.108,362.272 598.195,378.634 578.443,380.657 591.747,394.685 587.678,413.171 605.819,405.478 "
           id="polygon13"
           style="fill:#ffd500" />
        <polygon
           points="562.308,436.842 564.413,424.112 576.474,418.233 564.39,412.391 562.235,399.671 552.661,408.788 539.265,406.802 545.429,418.282 539.319,429.776 552.697,427.754 "
           id="polygon15"
           style="fill:#ffd500" />
      </g>
      <g
         transform="translate(-92.090191,-17.154682)"
         id="g17">
        <path
           d="m 321.832,231.019 c 3.932,3.936 11.262,2.444 14.907,-0.699 11.809,-10.175 13.959,-28.459 14.297,-28.638 l -0.008,-0.009 c -0.178,0.34 -18.398,2.522 -28.522,14.382 -3.129,3.668 -4.604,11.021 -0.674,14.962 v 0.002 z"
           id="path19"
           inkscape:connector-curvature="0"
           style="fill:#ffd500" />
        <path
           d="m 290.899,216.986 c 7.521,0.047 13.092,-9.976 13.557,-17.71 1.527,-25.034 -13.926,-48.398 -13.777,-48.982 l -0.016,-0.006 c 0.155,0.59 -15.146,23.758 -13.455,48.811 0.523,7.745 6.162,17.838 13.686,17.885 l 0.005,0.002 z"
           id="path21"
           inkscape:connector-curvature="0"
           style="fill:#ffd500" />
        <path
           d="m 274.805,219.94 c 7.114,-2.432 8.974,-13.979 6.792,-21.631 -7.047,-24.762 -29.551,-42.318 -29.609,-42.932 l -0.016,-0.003 c 0.346,0.524 -6.235,28.013 3.854,51.733 3.121,7.335 11.859,15.257 18.974,12.828 l 0.005,0.005 z"
           id="path23"
           inkscape:connector-curvature="0"
           style="fill:#ffd500" />
        <path
           d="m 258.87,231.769 c 7.693,-7.405 4.438,-22.156 -1.975,-29.744 -20.732,-24.589 -57.25,-30.836 -57.621,-31.521 l -0.02,0.009 c 0.679,0.391 5.742,36.885 29.768,58.304 7.427,6.621 22.146,10.347 29.842,2.947 l 0.006,0.005 z"
           id="path25"
           inkscape:connector-curvature="0"
           style="fill:#ffd500" />
        <path
           d="m 247.349,252.038 c 2.811,-10.713 -9.422,-22.318 -20.264,-25.803 -35.088,-11.317 -74.008,2.194 -74.787,1.772 l -0.013,0.018 c 0.896,-0.006 28.296,30.272 64.591,37.001 11.219,2.08 27.648,-2.275 30.469,-12.988 h 0.004 z"
           id="path27"
           inkscape:connector-curvature="0"
           style="fill:#ffd500" />
        <path
           d="m 244.917,272.126 c -1.738,-10.334 -17.327,-15.472 -28.438,-14.18 -35.97,4.168 -65.494,31.222 -66.356,31.166 l -0.005,0.021 c 0.801,-0.357 37.417,14.843 72.641,6.252 10.885,-2.66 23.887,-12.917 22.154,-23.255 l 0.004,-0.004 z"
           id="path29"
           inkscape:connector-curvature="0"
           style="fill:#ffd500" />
        <path
           d="m 249.187,296.855 c -6.661,-9.243 -23.899,-7.101 -33.787,-0.759 -32.008,20.504 -46.813,60.281 -47.66,60.621 l 0.006,0.023 c 0.583,-0.717 42.605,-2.71 71.762,-27.164 9.012,-7.563 16.332,-23.477 9.678,-32.719 l 0.001,-0.002 z"
           id="path31"
           inkscape:connector-curvature="0"
           style="fill:#ffd500" />
        <path
           d="m 262.939,314.062 c -8.511,-5.054 -22.099,3.76 -28.231,13.104 -19.873,30.237 -19.256,69.665 -19.851,70.3 l 0.013,0.013 c 0.252,-0.838 34.412,-19.601 50.648,-51.997 5.016,-10.016 5.93,-26.359 -2.58,-31.414 l 0.001,-0.006 z"
           id="path33"
           inkscape:connector-curvature="0"
           style="fill:#ffd500" />
        <path
           d="m 284.01,322.484 c -8.685,-0.896 -16.237,10.066 -17.646,18.952 -4.562,28.768 10.667,57.5 10.432,58.162 l 0.013,0.007 c -0.112,-0.7 20.151,-25.77 20.999,-54.917 0.26,-9.009 -5.115,-21.302 -13.798,-22.201 v -0.003 z"
           id="path35"
           inkscape:connector-curvature="0"
           style="fill:#ffd500" />
        <path
           d="m 300.915,318.356 c -6.119,1.225 -9.314,8.897 -8.658,14.183 2.098,17.098 17.783,30.243 17.742,30.662 l 0.015,10e-4 c -0.206,-0.371 9.144,-18.517 4.423,-35.094 -1.463,-5.125 -7.394,-10.977 -13.52,-9.752 h -0.002 z"
           id="path37"
           inkscape:connector-curvature="0"
           style="fill:#ffd500" />
        <path
           d="m 307.534,220.261 c 6.854,3.049 15.477,-2.664 18.629,-8.607 10.224,-19.238 4.347,-43.959 4.687,-44.363 l -0.007,-0.008 c -0.068,0.527 -22.213,12.767 -29.5,33.307 -2.254,6.354 -0.664,16.613 6.189,19.667 l 0.002,0.004 z"
           id="path39"
           inkscape:connector-curvature="0"
           style="fill:#ffd500" />
      </g>
      <g
         transform="translate(-92.090191,-17.154682)"
         style="fill:#004319;fill-opacity:1"
         id="g41">
        <rect
           x="332.81201"
           y="312.245"
           width="11.166"
           height="53.926998"
           id="rect43"
           style="fill:#004319;fill-opacity:1" />
        <path
           d="m 364.899,328.239 c 2.475,0 4.739,0.383 6.793,1.153 2.054,0.77 3.818,1.888 5.294,3.352 1.476,1.464 2.63,3.258 3.458,5.385 0.83,2.126 1.244,4.534 1.244,7.226 0,0.84 -0.035,1.527 -0.108,2.051 -0.071,0.529 -0.204,0.949 -0.396,1.265 -0.191,0.31 -0.449,0.524 -0.773,0.645 -0.324,0.122 -0.74,0.183 -1.244,0.183 h -21.541 c 0.358,3.123 1.305,5.385 2.844,6.787 1.539,1.409 3.52,2.107 5.946,2.107 1.296,0 2.411,-0.154 3.349,-0.467 0.935,-0.309 1.772,-0.658 2.504,-1.045 0.732,-0.383 1.404,-0.733 2.018,-1.044 0.613,-0.312 1.256,-0.47 1.926,-0.47 0.891,0 1.561,0.324 2.017,0.974 l 3.245,3.999 c -1.154,1.321 -2.398,2.398 -3.731,3.223 -1.333,0.828 -2.702,1.48 -4.104,1.947 -1.406,0.467 -2.813,0.789 -4.216,0.973 -1.407,0.18 -2.747,0.273 -4.019,0.273 -2.615,0 -5.07,-0.43 -7.363,-1.279 -2.294,-0.854 -4.299,-2.121 -6.016,-3.803 -1.716,-1.683 -3.075,-3.768 -4.071,-6.268 -0.999,-2.498 -1.494,-5.402 -1.494,-8.717 0,-2.498 0.425,-4.863 1.278,-7.1 0.854,-2.234 2.078,-4.189 3.674,-5.871 1.599,-1.683 3.532,-3.013 5.801,-4 2.267,-0.983 4.828,-1.479 7.685,-1.479 m 0.219,7.709 c -2.137,0 -3.809,0.605 -5.008,1.817 -1.201,1.214 -1.992,2.964 -2.378,5.244 h 13.942 c 0,-0.89 -0.115,-1.752 -0.344,-2.59 -0.229,-0.847 -0.602,-1.599 -1.115,-2.255 -0.518,-0.66 -1.195,-1.196 -2.035,-1.605 -0.843,-0.408 -1.864,-0.611 -3.062,-0.611"
           id="path45"
           inkscape:connector-curvature="0"
           style="fill:#004319;fill-opacity:1" />
        <path
           d="m 409.255,336.992 c -0.287,0.454 -0.594,0.779 -0.916,0.973 -0.324,0.193 -0.738,0.287 -1.24,0.287 -0.528,0 -1.053,-0.112 -1.582,-0.341 -0.525,-0.229 -1.097,-0.479 -1.705,-0.742 -0.611,-0.26 -1.302,-0.506 -2.068,-0.734 -0.766,-0.229 -1.641,-0.342 -2.621,-0.342 -1.414,0 -2.5,0.268 -3.256,0.809 -0.756,0.539 -1.132,1.289 -1.132,2.25 0,0.7 0.245,1.274 0.737,1.731 0.49,0.458 1.144,0.858 1.959,1.206 0.816,0.348 1.738,0.68 2.771,0.992 1.031,0.313 2.085,0.661 3.163,1.045 1.076,0.383 2.133,0.834 3.164,1.35 1.031,0.516 1.951,1.154 2.767,1.908 0.814,0.758 1.468,1.676 1.958,2.756 0.492,1.082 0.738,2.381 0.738,3.892 0,1.851 -0.335,3.552 -1.009,5.115 -0.673,1.563 -1.676,2.906 -3.007,4.034 -1.334,1.128 -2.981,2.006 -4.938,2.629 -1.959,0.626 -4.208,0.939 -6.752,0.939 -1.275,0 -2.547,-0.123 -3.818,-0.365 -1.273,-0.238 -2.503,-0.561 -3.692,-0.969 -1.189,-0.414 -2.288,-0.896 -3.298,-1.461 -1.008,-0.564 -1.871,-1.169 -2.592,-1.82 l 2.592,-4.106 c 0.313,-0.479 0.688,-0.86 1.119,-1.134 0.434,-0.277 0.995,-0.416 1.691,-0.416 0.648,0 1.231,0.145 1.748,0.432 0.518,0.291 1.076,0.603 1.675,0.938 0.601,0.339 1.306,0.652 2.108,0.938 0.803,0.287 1.82,0.433 3.045,0.433 0.859,0 1.596,-0.089 2.195,-0.271 0.602,-0.181 1.08,-0.426 1.441,-0.737 0.362,-0.31 0.623,-0.657 0.791,-1.044 0.168,-0.385 0.254,-0.781 0.254,-1.189 0,-0.744 -0.254,-1.357 -0.758,-1.838 -0.505,-0.48 -1.166,-0.896 -1.981,-1.243 -0.817,-0.349 -1.747,-0.671 -2.792,-0.974 -1.046,-0.299 -2.106,-0.641 -3.189,-1.024 -1.079,-0.387 -2.143,-0.849 -3.188,-1.389 -1.043,-0.539 -1.975,-1.225 -2.789,-2.054 -0.82,-0.828 -1.478,-1.843 -1.981,-3.043 -0.504,-1.201 -0.757,-2.654 -0.757,-4.359 0,-1.588 0.306,-3.095 0.918,-4.523 0.613,-1.428 1.532,-2.685 2.756,-3.764 1.225,-1.083 2.761,-1.938 4.609,-2.574 1.85,-0.636 4.012,-0.958 6.484,-0.958 1.346,0 2.647,0.123 3.908,0.364 1.265,0.238 2.445,0.573 3.55,1.006 1.104,0.435 2.114,0.944 3.024,1.533 0.913,0.588 1.719,1.229 2.414,1.928 l -2.518,3.926 z"
           id="path47"
           inkscape:connector-curvature="0"
           style="fill:#004319;fill-opacity:1" />
        <path
           d="M 454.601,366.172 H 442.328 L 424.83,321.034 h 11.236 c 0.955,0 1.759,0.226 2.415,0.674 0.651,0.448 1.091,1.008 1.329,1.676 l 6.268,20.242 c 0.495,1.652 0.964,3.264 1.414,4.83 0.445,1.567 0.834,3.133 1.152,4.702 0.318,-1.565 0.709,-3.132 1.174,-4.702 0.463,-1.566 0.961,-3.178 1.478,-4.83 l 6.528,-20.242 c 0.234,-0.668 0.666,-1.225 1.307,-1.676 0.638,-0.451 1.391,-0.674 2.266,-0.674 h 10.705 l -17.501,45.138 z"
           id="path49"
           inkscape:connector-curvature="0"
           style="fill:#004319;fill-opacity:1" />
        <path
           d="m 485.888,328.239 c 2.471,0 4.736,0.383 6.789,1.153 2.053,0.77 3.816,1.888 5.295,3.352 1.477,1.464 2.63,3.258 3.457,5.385 0.83,2.126 1.244,4.534 1.244,7.226 0,0.84 -0.033,1.527 -0.104,2.051 -0.074,0.529 -0.205,0.949 -0.398,1.265 -0.193,0.312 -0.451,0.524 -0.773,0.645 -0.322,0.122 -0.738,0.183 -1.244,0.183 H 478.61 c 0.364,3.123 1.308,5.385 2.849,6.787 1.536,1.409 3.519,2.107 5.946,2.107 1.295,0 2.415,-0.154 3.348,-0.467 0.936,-0.309 1.773,-0.658 2.506,-1.045 0.729,-0.383 1.406,-0.733 2.018,-1.044 0.613,-0.312 1.252,-0.47 1.928,-0.47 0.887,0 1.558,0.324 2.015,0.974 l 3.245,3.999 c -1.148,1.321 -2.396,2.398 -3.731,3.223 -1.331,0.828 -2.701,1.48 -4.106,1.947 -1.404,0.467 -2.809,0.789 -4.211,0.973 -1.406,0.18 -2.746,0.273 -4.02,0.273 -2.617,0 -5.072,-0.43 -7.369,-1.279 -2.291,-0.854 -4.297,-2.121 -6.014,-3.803 -1.719,-1.683 -3.074,-3.768 -4.074,-6.268 -0.994,-2.498 -1.492,-5.402 -1.492,-8.717 0,-2.498 0.426,-4.863 1.275,-7.1 0.854,-2.234 2.079,-4.189 3.679,-5.871 1.595,-1.683 3.528,-3.013 5.796,-4 2.264,-0.987 4.831,-1.479 7.69,-1.479 m 0.213,7.709 c -2.14,0 -3.805,0.605 -5.008,1.817 -1.201,1.214 -1.995,2.964 -2.375,5.244 h 13.941 c 0,-0.89 -0.113,-1.752 -0.34,-2.59 -0.234,-0.847 -0.601,-1.599 -1.123,-2.255 -0.515,-0.66 -1.193,-1.196 -2.031,-1.605 -0.839,-0.405 -1.864,-0.611 -3.064,-0.611"
           id="path51"
           inkscape:connector-curvature="0"
           style="fill:#004319;fill-opacity:1" />
        <path
           d="m 505.892,366.172 v -37.359 h 6.625 c 0.555,0 1.016,0.048 1.391,0.146 0.373,0.096 0.686,0.246 0.934,0.447 0.254,0.207 0.444,0.474 0.576,0.813 0.133,0.335 0.249,0.745 0.343,1.225 l 0.615,3.493 c 1.37,-2.114 2.903,-3.784 4.61,-5.009 1.706,-1.225 3.564,-1.836 5.586,-1.836 1.701,0 3.07,0.406 4.105,1.225 l -1.441,8.211 c -0.096,0.506 -0.289,0.86 -0.579,1.064 -0.287,0.203 -0.673,0.306 -1.149,0.306 -0.41,0 -0.891,-0.054 -1.445,-0.164 -0.551,-0.104 -1.246,-0.161 -2.084,-0.161 -2.932,0 -5.242,1.562 -6.92,4.68 v 22.914 h -11.166 v 0.005 z"
           id="path53"
           inkscape:connector-curvature="0"
           style="fill:#004319;fill-opacity:1" />
        <path
           d="m 549.509,366.749 c -1.779,0 -3.344,-0.258 -4.703,-0.777 -1.359,-0.516 -2.5,-1.247 -3.422,-2.197 -0.926,-0.945 -1.627,-2.096 -2.107,-3.438 -0.478,-1.342 -0.719,-2.847 -0.719,-4.503 v -19.309 h -3.168 c -0.582,0 -1.07,-0.188 -1.479,-0.557 -0.409,-0.375 -0.613,-0.922 -0.613,-1.642 v -4.358 l 5.946,-1.152 2.197,-9.111 c 0.286,-1.157 1.106,-1.729 2.446,-1.729 h 5.836 v 10.914 h 9.079 v 7.635 h -9.079 v 18.555 c 0,0.863 0.209,1.578 0.631,2.143 0.424,0.564 1.029,0.846 1.822,0.846 0.409,0 0.75,-0.039 1.027,-0.127 0.277,-0.083 0.514,-0.18 0.719,-0.285 0.207,-0.107 0.397,-0.208 0.584,-0.289 0.177,-0.083 0.383,-0.129 0.628,-0.129 0.339,0 0.606,0.081 0.813,0.239 0.201,0.155 0.411,0.403 0.628,0.735 l 3.387,5.299 c -1.441,1.08 -3.059,1.891 -4.862,2.433 -1.811,0.533 -3.671,0.804 -5.591,0.804"
           id="path55"
           inkscape:connector-curvature="0"
           style="fill:#004319;fill-opacity:1" />
        <path
           d="m 589.188,336.992 c -0.291,0.454 -0.594,0.779 -0.919,0.973 -0.322,0.193 -0.735,0.287 -1.241,0.287 -0.525,0 -1.057,-0.112 -1.578,-0.341 -0.529,-0.229 -1.101,-0.479 -1.713,-0.742 -0.612,-0.26 -1.298,-0.506 -2.065,-0.734 -0.769,-0.229 -1.642,-0.342 -2.626,-0.342 -1.411,0 -2.498,0.268 -3.252,0.809 -0.758,0.539 -1.135,1.289 -1.135,2.25 0,0.7 0.244,1.274 0.736,1.731 0.488,0.458 1.139,0.858 1.958,1.206 0.815,0.348 1.739,0.68 2.766,0.992 1.032,0.313 2.087,0.661 3.164,1.045 1.079,0.383 2.134,0.834 3.165,1.35 1.027,0.516 1.957,1.154 2.766,1.908 0.814,0.758 1.473,1.676 1.962,2.756 0.493,1.082 0.738,2.381 0.738,3.892 0,1.851 -0.339,3.552 -1.008,5.115 -0.675,1.563 -1.677,2.906 -3.007,4.034 -1.335,1.128 -2.979,2.006 -4.938,2.629 -1.956,0.626 -4.208,0.939 -6.755,0.939 -1.272,0 -2.545,-0.123 -3.815,-0.365 -1.276,-0.238 -2.507,-0.561 -3.692,-0.969 -1.189,-0.414 -2.289,-0.896 -3.301,-1.461 -1.005,-0.564 -1.871,-1.169 -2.592,-1.82 l 2.592,-4.106 c 0.309,-0.479 0.688,-0.86 1.122,-1.134 0.435,-0.277 0.996,-0.416 1.692,-0.416 0.646,0 1.23,0.145 1.746,0.432 0.516,0.291 1.074,0.603 1.676,0.938 0.599,0.339 1.305,0.652 2.104,0.938 0.806,0.287 1.823,0.433 3.048,0.433 0.86,0 1.596,-0.089 2.197,-0.271 0.597,-0.181 1.074,-0.426 1.439,-0.737 0.363,-0.31 0.623,-0.657 0.793,-1.044 0.166,-0.385 0.25,-0.781 0.25,-1.189 0,-0.744 -0.25,-1.357 -0.758,-1.838 -0.506,-0.48 -1.163,-0.896 -1.982,-1.243 -0.816,-0.349 -1.748,-0.671 -2.79,-0.974 -1.048,-0.299 -2.104,-0.641 -3.19,-1.024 -1.08,-0.387 -2.143,-0.849 -3.19,-1.389 -1.044,-0.539 -1.972,-1.225 -2.788,-2.054 -0.818,-0.828 -1.479,-1.843 -1.984,-3.043 -0.501,-1.201 -0.754,-2.654 -0.754,-4.359 0,-1.588 0.306,-3.095 0.918,-4.523 0.612,-1.428 1.533,-2.685 2.756,-3.764 1.225,-1.083 2.767,-1.938 4.615,-2.574 1.846,-0.636 4.012,-0.958 6.483,-0.958 1.341,0 2.646,0.123 3.909,0.364 1.26,0.238 2.439,0.573 3.545,1.006 1.102,0.435 2.114,0.944 3.027,1.533 0.914,0.588 1.717,1.229 2.412,1.928 l -2.506,3.926 z"
           id="path57"
           inkscape:connector-curvature="0"
           style="fill:#004319;fill-opacity:1" />
      </g>
      <g
         transform="translate(-92.090191,-17.154682)"
         style="fill:#004319;fill-opacity:1"
         id="g59">
        <path
           d="m 386.648,188.182 c 2.989,0 5.724,0.466 8.204,1.392 2.482,0.929 4.615,2.276 6.402,4.047 1.783,1.771 3.176,3.941 4.174,6.508 1.004,2.567 1.504,5.477 1.504,8.726 0,1.02 -0.046,1.845 -0.131,2.484 -0.086,0.636 -0.248,1.147 -0.479,1.523 -0.233,0.378 -0.545,0.639 -0.936,0.785 -0.394,0.144 -0.893,0.216 -1.501,0.216 h -26.032 c 0.438,3.771 1.582,6.506 3.439,8.205 1.856,1.701 4.25,2.547 7.182,2.547 1.57,0 2.918,-0.188 4.047,-0.566 1.134,-0.376 2.141,-0.795 3.026,-1.261 0.884,-0.464 1.698,-0.885 2.438,-1.263 0.738,-0.378 1.516,-0.565 2.33,-0.565 1.072,0 1.885,0.39 2.438,1.175 l 3.915,4.834 c -1.392,1.597 -2.894,2.893 -4.505,3.896 -1.609,0.999 -3.265,1.784 -4.959,2.35 -1.698,0.565 -3.397,0.958 -5.096,1.178 -1.699,0.217 -3.314,0.325 -4.852,0.325 -3.164,0 -6.131,-0.517 -8.902,-1.55 -2.771,-1.025 -5.193,-2.559 -7.271,-4.591 -2.075,-2.03 -3.716,-4.556 -4.917,-7.575 -1.203,-3.018 -1.809,-6.528 -1.809,-10.533 0,-3.018 0.516,-5.877 1.546,-8.575 1.028,-2.698 2.508,-5.063 4.44,-7.095 1.929,-2.028 4.267,-3.643 7.008,-4.832 2.746,-1.191 5.841,-1.785 9.297,-1.785 m 0.261,9.315 c -2.581,0 -4.598,0.733 -6.049,2.197 -1.454,1.463 -2.41,3.578 -2.875,6.332 h 16.846 c 0,-1.072 -0.139,-2.118 -0.414,-3.132 -0.275,-1.015 -0.727,-1.922 -1.352,-2.72 -0.623,-0.797 -1.445,-1.446 -2.461,-1.938 -1.009,-0.493 -2.245,-0.739 -3.695,-0.739"
           id="path61"
           inkscape:connector-curvature="0"
           style="fill:#004319;fill-opacity:1" />
        <path
           d="m 422.215,196.66 v 23.702 c 0,1.851 0.419,3.281 1.265,4.289 0.838,1.008 2.074,1.514 3.709,1.514 1.225,0 2.369,-0.252 3.436,-0.758 1.068,-0.505 2.109,-1.211 3.119,-2.125 v -26.621 h 11.172 v 37.355 H 438 c -1.395,0 -2.303,-0.624 -2.738,-1.872 l -0.688,-2.163 c -0.717,0.698 -1.463,1.328 -2.232,1.891 -0.77,0.565 -1.594,1.045 -2.471,1.441 -0.875,0.396 -1.819,0.707 -2.824,0.938 -1.01,0.229 -2.113,0.342 -3.316,0.342 -2.039,0 -3.848,-0.355 -5.422,-1.064 -1.574,-0.707 -2.901,-1.697 -3.98,-2.972 -1.082,-1.271 -1.898,-2.772 -2.449,-4.503 -0.553,-1.731 -0.83,-3.629 -0.83,-5.692 V 196.66 h 11.165 z"
           id="path63"
           inkscape:connector-curvature="0"
           style="fill:#004319;fill-opacity:1" />
        <path
           d="M 450.724,234.015 V 196.66 h 6.633 c 0.553,0 1.014,0.047 1.386,0.144 0.374,0.097 0.687,0.243 0.938,0.449 0.249,0.205 0.445,0.477 0.575,0.811 0.134,0.337 0.244,0.744 0.344,1.225 l 0.611,3.494 c 1.37,-2.114 2.911,-3.784 4.611,-5.008 1.705,-1.226 3.568,-1.838 5.586,-1.838 1.702,0 3.072,0.408 4.105,1.225 l -1.441,8.212 c -0.096,0.505 -0.285,0.858 -0.575,1.063 -0.29,0.203 -0.674,0.308 -1.154,0.308 -0.405,0 -0.89,-0.054 -1.44,-0.164 -0.555,-0.108 -1.25,-0.161 -2.088,-0.161 -2.934,0 -5.24,1.562 -6.919,4.685 v 22.907 h -11.171 v 0.003 z"
           id="path65"
           inkscape:connector-curvature="0"
           style="fill:#004319;fill-opacity:1" />
        <path
           d="m 494.464,196.086 c 2.833,0 5.414,0.442 7.744,1.333 2.33,0.889 4.328,2.162 5.998,3.817 1.666,1.655 2.967,3.668 3.892,6.035 0.923,2.366 1.386,5.024 1.386,7.979 0,2.978 -0.463,5.658 -1.386,8.051 -0.927,2.387 -2.228,4.419 -3.892,6.086 -1.67,1.67 -3.668,2.956 -5.998,3.854 -2.327,0.901 -4.911,1.35 -7.744,1.35 -2.855,0 -5.459,-0.448 -7.799,-1.35 -2.342,-0.9 -4.363,-2.186 -6.053,-3.854 -1.691,-1.667 -3.003,-3.699 -3.924,-6.086 -0.93,-2.393 -1.387,-5.073 -1.387,-8.051 0,-2.958 0.457,-5.613 1.387,-7.979 0.921,-2.367 2.232,-4.377 3.924,-6.035 1.689,-1.655 3.713,-2.93 6.053,-3.817 2.34,-0.891 4.943,-1.333 7.799,-1.333 m 0,30.223 c 2.572,0 4.461,-0.905 5.672,-2.719 1.211,-1.814 1.82,-4.57 1.82,-8.269 0,-3.697 -0.605,-6.447 -1.82,-8.249 -1.211,-1.802 -3.104,-2.702 -5.672,-2.702 -2.643,0 -4.573,0.9 -5.801,2.702 -1.229,1.802 -1.837,4.552 -1.837,8.249 0,3.698 0.61,6.455 1.837,8.269 1.228,1.813 3.158,2.719 5.801,2.719"
           id="path67"
           inkscape:connector-curvature="0"
           style="fill:#004319;fill-opacity:1" />
        <path
           d="m 517.103,245.868 v -49.205 h 6.916 c 0.695,0 1.275,0.158 1.748,0.469 0.467,0.308 0.798,0.779 0.988,1.403 l 0.829,2.739 c 0.724,-0.789 1.494,-1.515 2.323,-2.162 0.83,-0.646 1.717,-1.205 2.668,-1.673 0.947,-0.47 1.969,-0.837 3.061,-1.102 1.092,-0.264 2.289,-0.396 3.585,-0.396 1.945,0 3.745,0.434 5.401,1.297 1.656,0.862 3.083,2.113 4.289,3.746 1.197,1.634 2.143,3.632 2.826,5.998 0.686,2.367 1.027,5.051 1.027,8.052 0,2.81 -0.39,5.405 -1.169,7.781 -0.784,2.376 -1.88,4.444 -3.281,6.196 -1.401,1.752 -3.083,3.123 -5.04,4.104 -1.959,0.984 -4.125,1.479 -6.503,1.479 -1.946,0 -3.577,-0.275 -4.898,-0.829 -1.321,-0.552 -2.524,-1.296 -3.606,-2.233 v 14.339 h -11.166 l 0.002,-0.003 z m 18.227,-41.39 c -0.819,0 -1.553,0.081 -2.216,0.233 -0.661,0.157 -1.273,0.378 -1.838,0.671 -0.563,0.285 -1.086,0.65 -1.566,1.098 -0.479,0.445 -0.96,0.953 -1.443,1.53 v 15.85 c 0.846,0.938 1.754,1.591 2.739,1.963 0.985,0.372 2.021,0.56 3.097,0.56 1.034,0 1.982,-0.203 2.852,-0.615 0.86,-0.408 1.615,-1.063 2.246,-1.963 0.642,-0.9 1.139,-2.07 1.496,-3.512 0.361,-1.442 0.541,-3.193 0.541,-5.26 0,-1.969 -0.145,-3.627 -0.432,-4.972 -0.287,-1.345 -0.689,-2.432 -1.205,-3.263 -0.515,-0.828 -1.135,-1.422 -1.856,-1.782 -0.722,-0.363 -1.529,-0.538 -2.415,-0.538"
           id="path69"
           inkscape:connector-curvature="0"
           style="fill:#004319;fill-opacity:1" />
        <path
           d="m 574.359,196.086 c 2.476,0 4.737,0.384 6.791,1.153 2.052,0.769 3.819,1.885 5.294,3.348 1.479,1.467 2.631,3.262 3.461,5.387 0.832,2.125 1.244,4.535 1.244,7.222 0,0.843 -0.035,1.526 -0.104,2.057 -0.076,0.527 -0.209,0.946 -0.398,1.26 -0.193,0.311 -0.449,0.528 -0.777,0.65 -0.322,0.118 -0.738,0.179 -1.24,0.179 h -21.547 c 0.363,3.123 1.312,5.387 2.85,6.791 1.537,1.404 3.519,2.105 5.945,2.105 1.295,0 2.418,-0.154 3.348,-0.468 0.939,-0.313 1.772,-0.661 2.508,-1.048 0.729,-0.383 1.404,-0.732 2.018,-1.044 0.611,-0.311 1.254,-0.469 1.928,-0.469 0.889,0 1.56,0.327 2.017,0.976 l 3.241,3.999 c -1.149,1.318 -2.392,2.394 -3.728,3.224 -1.335,0.828 -2.704,1.479 -4.108,1.947 -1.405,0.469 -2.806,0.788 -4.213,0.97 -1.404,0.182 -2.742,0.272 -4.019,0.272 -2.616,0 -5.073,-0.426 -7.364,-1.277 -2.298,-0.854 -4.302,-2.121 -6.016,-3.8 -1.719,-1.682 -3.074,-3.771 -4.069,-6.267 -0.999,-2.499 -1.497,-5.405 -1.497,-8.719 0,-2.499 0.426,-4.865 1.28,-7.099 0.854,-2.235 2.074,-4.189 3.677,-5.871 1.596,-1.682 3.529,-3.013 5.798,-3.999 2.26,-0.987 4.822,-1.479 7.68,-1.479 m 0.217,7.706 c -2.138,0 -3.806,0.608 -5.003,1.82 -1.203,1.214 -1.993,2.96 -2.377,5.24 h 13.941 c 0,-0.887 -0.113,-1.752 -0.344,-2.591 -0.227,-0.843 -0.598,-1.593 -1.117,-2.253 -0.516,-0.658 -1.197,-1.195 -2.036,-1.603 -0.843,-0.406 -1.863,-0.613 -3.064,-0.613"
           id="path71"
           inkscape:connector-curvature="0"
           style="fill:#004319;fill-opacity:1" />
      </g>
      <g
         transform="translate(-92.090191,-17.154682)"
         style="fill:#ffffff"
         id="g73">
        <path
           d="m 291.451,247.379 c 3.703,0 7.093,0.573 10.167,1.723 3.075,1.153 5.719,2.825 7.932,5.019 2.21,2.194 3.936,4.883 5.178,8.063 1.24,3.186 1.859,6.788 1.859,10.814 0,1.26 -0.051,2.287 -0.16,3.076 -0.107,0.793 -0.307,1.422 -0.594,1.889 -0.289,0.467 -0.674,0.791 -1.16,0.971 -0.482,0.181 -1.105,0.269 -1.858,0.269 h -32.259 c 0.537,4.675 1.959,8.065 4.26,10.167 2.301,2.103 5.27,3.157 8.9,3.157 1.943,0 3.613,-0.234 5.016,-0.702 1.403,-0.467 2.651,-0.988 3.748,-1.564 1.098,-0.575 2.104,-1.097 3.022,-1.564 0.915,-0.467 1.875,-0.701 2.884,-0.701 1.33,0 2.338,0.483 3.022,1.457 l 4.854,5.988 c -1.729,1.977 -3.588,3.588 -5.584,4.828 -1.996,1.241 -4.046,2.214 -6.15,2.912 -2.103,0.703 -4.206,1.188 -6.31,1.458 -2.104,0.272 -4.108,0.404 -6.015,0.404 -3.922,0 -7.598,-0.639 -11.033,-1.916 -3.434,-1.274 -6.437,-3.171 -9.008,-5.688 -2.57,-2.518 -4.602,-5.649 -6.094,-9.391 -1.492,-3.736 -2.238,-8.089 -2.238,-13.051 0,-3.738 0.637,-7.281 1.912,-10.627 1.277,-3.343 3.114,-6.275 5.505,-8.791 2.39,-2.518 5.285,-4.513 8.684,-5.989 3.402,-1.476 7.24,-2.211 11.52,-2.211 m 0.323,11.54 c -3.199,0 -5.699,0.91 -7.496,2.725 -1.798,1.816 -2.986,4.432 -3.559,7.848 h 20.874 c 0,-1.329 -0.17,-2.624 -0.51,-3.884 -0.345,-1.257 -0.901,-2.382 -1.675,-3.369 -0.771,-0.989 -1.789,-1.788 -3.047,-2.399 -1.262,-0.613 -2.79,-0.921 -4.587,-0.921"
           id="path75"
           inkscape:connector-curvature="0"
           style="fill:#ffffff" />
        <path
           d="m 357.19,270.043 c -0.406,0.491 -0.789,0.879 -1.166,1.163 -0.373,0.293 -0.908,0.434 -1.598,0.434 -0.661,0 -1.26,-0.156 -1.792,-0.475 -0.532,-0.316 -1.128,-0.668 -1.788,-1.058 -0.664,-0.388 -1.44,-0.738 -2.331,-1.056 -0.892,-0.316 -1.998,-0.477 -3.322,-0.477 -1.641,0 -3.058,0.305 -4.251,0.906 -1.193,0.603 -2.178,1.467 -2.955,2.592 -0.775,1.122 -1.352,2.496 -1.727,4.119 -0.373,1.629 -0.561,3.461 -0.561,5.505 0,4.284 0.824,7.579 2.48,9.879 1.654,2.303 3.932,3.454 6.838,3.454 1.555,0 2.785,-0.196 3.69,-0.583 0.907,-0.387 1.676,-0.82 2.312,-1.294 0.631,-0.475 1.215,-0.914 1.746,-1.319 0.531,-0.398 1.203,-0.601 2.008,-0.601 1.061,0 1.869,0.387 2.414,1.163 l 3.887,4.793 c -1.383,1.582 -2.836,2.868 -4.361,3.86 -1.523,0.992 -3.084,1.771 -4.682,2.33 -1.595,0.563 -3.201,0.949 -4.811,1.164 -1.612,0.216 -3.178,0.322 -4.703,0.322 -2.734,0 -5.347,-0.517 -7.834,-1.551 -2.487,-1.034 -4.676,-2.539 -6.56,-4.509 -1.884,-1.972 -3.38,-4.396 -4.488,-7.272 -1.106,-2.876 -1.659,-6.157 -1.659,-9.837 0,-3.224 0.482,-6.24 1.447,-9.046 0.962,-2.803 2.387,-5.234 4.272,-7.293 1.882,-2.055 4.212,-3.671 6.99,-4.852 2.774,-1.181 5.989,-1.77 9.646,-1.77 3.51,0 6.588,0.561 9.234,1.682 2.647,1.122 5.033,2.763 7.162,4.919 l -3.537,4.708 z"
           id="path77"
           inkscape:connector-curvature="0"
           style="fill:#ffffff" />
        <path
           d="m 385.764,258.737 c 3.394,0 6.487,0.533 9.276,1.597 2.793,1.063 5.185,2.587 7.183,4.576 2.005,1.983 3.557,4.392 4.664,7.226 1.108,2.835 1.664,6.02 1.664,9.561 0,3.566 -0.554,6.78 -1.664,9.643 -1.107,2.865 -2.659,5.295 -4.664,7.293 -1.998,2.002 -4.39,3.538 -7.183,4.617 -2.791,1.078 -5.885,1.617 -9.276,1.617 -3.425,0 -6.534,-0.535 -9.343,-1.617 -2.805,-1.079 -5.223,-2.615 -7.25,-4.618 -2.027,-1.999 -3.596,-4.429 -4.705,-7.292 -1.105,-2.865 -1.659,-6.078 -1.659,-9.646 0,-3.537 0.556,-6.722 1.659,-9.558 1.109,-2.835 2.677,-5.243 4.705,-7.228 2.027,-1.986 4.445,-3.51 7.25,-4.573 2.805,-1.063 5.915,-1.598 9.343,-1.598 m 0,36.205 c 3.077,0 5.345,-1.087 6.796,-3.26 1.449,-2.172 2.178,-5.474 2.178,-9.903 0,-4.429 -0.729,-7.724 -2.178,-9.879 -1.453,-2.161 -3.719,-3.24 -6.796,-3.24 -3.164,0 -5.481,1.079 -6.948,3.24 -1.466,2.155 -2.201,5.449 -2.201,9.879 0,4.43 0.735,7.731 2.201,9.903 1.468,2.173 3.781,3.26 6.948,3.26"
           id="path79"
           inkscape:connector-curvature="0"
           style="fill:#ffffff" />
        <rect
           x="413.896"
           y="239.577"
           width="13.381"
           height="64.599998"
           id="rect81"
           style="fill:#ffffff" />
        <path
           d="m 455.581,258.737 c 3.396,0 6.489,0.533 9.278,1.597 2.79,1.063 5.185,2.587 7.187,4.576 1.998,1.983 3.551,4.392 4.66,7.226 1.108,2.835 1.659,6.02 1.659,9.561 0,3.566 -0.551,6.78 -1.659,9.643 -1.106,2.865 -2.659,5.295 -4.66,7.293 -2.002,2.002 -4.396,3.538 -7.187,4.619 -2.792,1.08 -5.886,1.617 -9.278,1.617 -3.424,0 -6.536,-0.537 -9.344,-1.617 -2.803,-1.081 -5.22,-2.617 -7.247,-4.619 -2.03,-1.998 -3.597,-4.428 -4.705,-7.293 -1.108,-2.862 -1.659,-6.076 -1.659,-9.643 0,-3.541 0.555,-6.726 1.659,-9.561 1.108,-2.834 2.675,-5.242 4.705,-7.226 2.027,-1.989 4.444,-3.513 7.247,-4.576 2.808,-1.063 5.92,-1.597 9.344,-1.597 m 0,36.205 c 3.08,0 5.346,-1.087 6.797,-3.26 1.45,-2.172 2.178,-5.474 2.178,-9.903 0,-4.429 -0.728,-7.724 -2.178,-9.879 -1.455,-2.161 -3.719,-3.24 -6.797,-3.24 -3.166,0 -5.477,1.079 -6.943,3.24 -1.471,2.155 -2.203,5.449 -2.203,9.879 0,4.43 0.732,7.731 2.203,9.903 1.466,2.173 3.777,3.26 6.943,3.26"
           id="path83"
           inkscape:connector-curvature="0"
           style="fill:#ffffff" />
        <path
           d="m 502.582,258.652 c 1.898,0 3.688,0.185 5.372,0.56 1.683,0.373 3.248,0.905 4.686,1.597 h 13.506 v 4.876 c 0,0.749 -0.214,1.338 -0.625,1.77 -0.415,0.433 -1.129,0.764 -2.137,0.992 l -3.275,0.732 c 0.402,1.298 0.603,2.634 0.603,4.016 0,2.244 -0.468,4.258 -1.401,6.039 -0.936,1.787 -2.219,3.305 -3.843,4.556 -1.623,1.251 -3.544,2.214 -5.759,2.889 -2.217,0.68 -4.589,1.017 -7.119,1.017 -1.414,0 -2.736,-0.088 -3.969,-0.26 -0.983,0.574 -1.477,1.235 -1.477,1.982 0,0.75 0.396,1.291 1.186,1.62 0.793,0.331 1.84,0.563 3.133,0.691 1.296,0.129 2.778,0.216 4.447,0.255 1.666,0.047 3.364,0.146 5.092,0.305 1.727,0.158 3.424,0.425 5.092,0.797 1.67,0.377 3.152,0.979 4.448,1.813 1.294,0.832 2.337,1.948 3.126,3.343 0.794,1.397 1.189,3.173 1.189,5.332 0,2.012 -0.49,3.982 -1.469,5.909 -0.978,1.928 -2.418,3.639 -4.317,5.136 -1.897,1.494 -4.228,2.697 -6.989,3.606 -2.762,0.905 -5.928,1.359 -9.494,1.359 -3.512,0 -6.539,-0.333 -9.084,-0.993 -2.546,-0.665 -4.66,-1.533 -6.344,-2.613 -1.684,-1.075 -2.928,-2.323 -3.732,-3.729 -0.807,-1.411 -1.209,-2.88 -1.209,-4.403 0,-1.986 0.606,-3.659 1.809,-5.025 1.212,-1.369 2.867,-2.438 4.967,-3.216 -1.008,-0.662 -1.814,-1.509 -2.418,-2.543 -0.602,-1.038 -0.902,-2.347 -0.902,-3.929 0,-0.662 0.11,-1.359 0.342,-2.095 0.231,-0.732 0.592,-1.444 1.076,-2.133 0.492,-0.692 1.109,-1.356 1.857,-1.986 0.748,-0.633 1.64,-1.195 2.676,-1.688 -2.33,-1.233 -4.164,-2.874 -5.502,-4.917 -1.338,-2.044 -2.008,-4.416 -2.008,-7.121 0,-2.244 0.475,-4.266 1.426,-6.063 0.947,-1.798 2.25,-3.322 3.906,-4.574 1.652,-1.252 3.604,-2.213 5.846,-2.89 2.236,-0.677 4.669,-1.014 7.288,-1.014 m 9.926,47.165 c 0,-0.721 -0.224,-1.297 -0.671,-1.726 -0.443,-0.434 -1.051,-0.778 -1.808,-1.034 -0.763,-0.261 -1.653,-0.448 -2.678,-0.561 -1.019,-0.116 -2.124,-0.204 -3.302,-0.263 -1.184,-0.056 -2.402,-0.105 -3.67,-0.151 -1.267,-0.039 -2.516,-0.136 -3.754,-0.282 -0.835,0.577 -1.516,1.218 -2.049,1.922 -0.531,0.703 -0.802,1.503 -0.802,2.396 0,0.632 0.136,1.208 0.41,1.726 0.274,0.516 0.757,0.963 1.446,1.336 0.692,0.375 1.618,0.671 2.784,0.888 1.163,0.214 2.64,0.322 4.423,0.322 1.926,0 3.508,-0.114 4.744,-0.343 1.239,-0.232 2.223,-0.548 2.956,-0.949 0.731,-0.404 1.243,-0.885 1.534,-1.447 0.291,-0.559 0.437,-1.172 0.437,-1.834 m -9.926,-26.369 c 2.214,0 3.819,-0.552 4.811,-1.659 0.993,-1.107 1.488,-2.538 1.488,-4.295 0,-1.811 -0.495,-3.235 -1.488,-4.269 -0.991,-1.04 -2.597,-1.556 -4.811,-1.556 -2.218,0 -3.82,0.516 -4.812,1.556 -0.992,1.033 -1.488,2.457 -1.488,4.269 0,0.861 0.121,1.655 0.367,2.374 0.242,0.72 0.624,1.344 1.145,1.875 0.518,0.535 1.168,0.951 1.961,1.253 0.788,0.302 1.734,0.452 2.827,0.452"
           id="path85"
           inkscape:connector-curvature="0"
           style="fill:#ffffff" />
        <path
           d="m 547.647,247.174 c 0,1.065 -0.217,2.065 -0.648,2.999 -0.431,0.934 -1.021,1.753 -1.768,2.459 -0.749,0.709 -1.619,1.266 -2.611,1.682 -0.99,0.419 -2.051,0.624 -3.174,0.624 -1.094,0 -2.115,-0.205 -3.062,-0.624 -0.95,-0.416 -1.793,-0.976 -2.526,-1.682 -0.732,-0.706 -1.309,-1.523 -1.725,-2.459 -0.416,-0.934 -0.625,-1.936 -0.625,-2.999 0,-1.093 0.211,-2.116 0.625,-3.065 0.416,-0.948 0.992,-1.78 1.725,-2.5 0.733,-0.721 1.576,-1.281 2.526,-1.684 0.946,-0.403 1.969,-0.604 3.062,-0.604 1.123,0 2.182,0.2 3.174,0.604 0.995,0.4 1.862,0.962 2.611,1.684 0.746,0.72 1.336,1.552 1.768,2.5 0.432,0.949 0.648,1.972 0.648,3.065 m -1.553,57.003 h -13.38 v -44.75 h 13.38 v 44.75 z"
           id="path87"
           inkscape:connector-curvature="0"
           style="fill:#ffffff" />
        <path
           d="m 571.976,258.737 c 2.961,0 5.677,0.46 8.131,1.38 2.455,0.921 4.576,2.259 6.342,4.014 1.769,1.758 3.148,3.908 4.145,6.452 0.988,2.545 1.485,5.431 1.485,8.653 0,1.011 -0.042,1.828 -0.13,2.461 -0.082,0.633 -0.24,1.136 -0.473,1.511 -0.233,0.375 -0.541,0.635 -0.928,0.775 -0.391,0.143 -0.889,0.216 -1.488,0.216 h -25.809 c 0.436,3.741 1.569,6.451 3.41,8.134 1.839,1.684 4.215,2.527 7.117,2.527 1.56,0 2.896,-0.188 4.015,-0.563 1.125,-0.369 2.121,-0.791 3.001,-1.251 0.879,-0.458 1.686,-0.876 2.412,-1.251 0.739,-0.373 1.506,-0.56 2.311,-0.56 1.064,0 1.873,0.387 2.418,1.163 l 3.883,4.793 c -1.383,1.582 -2.869,2.868 -4.467,3.861 -1.6,0.992 -3.238,1.767 -4.918,2.326 -1.682,0.563 -3.368,0.949 -5.05,1.166 -1.687,0.217 -3.287,0.322 -4.812,0.322 -3.139,0 -6.076,-0.508 -8.826,-1.531 -2.748,-1.021 -5.15,-2.538 -7.209,-4.553 -2.055,-2.012 -3.682,-4.516 -4.873,-7.512 -1.193,-2.989 -1.791,-6.47 -1.791,-10.441 0,-2.992 0.506,-5.828 1.53,-8.5 1.021,-2.676 2.487,-5.021 4.405,-7.034 1.911,-2.016 4.227,-3.609 6.947,-4.79 2.728,-1.179 5.796,-1.768 9.222,-1.768 m 0.253,9.233 c -2.555,0 -4.561,0.729 -5.997,2.182 -1.436,1.453 -2.388,3.545 -2.849,6.278 h 16.7 c 0,-1.063 -0.136,-2.104 -0.41,-3.108 -0.274,-1.008 -0.718,-1.902 -1.337,-2.695 -0.619,-0.789 -1.432,-1.43 -2.437,-1.922 -1.002,-0.489 -2.228,-0.735 -3.67,-0.735"
           id="path89"
           inkscape:connector-curvature="0"
           style="fill:#ffffff" />
        <path
           d="m 302.886,227.778 c -2.203,-3.195 -7.414,-3.088 -10.309,-1.389 -9.369,5.492 -13.138,17.761 -13.39,17.84 l 0.003,0.009 c 0.162,-0.212 12.928,0.575 21.357,-6.284 2.606,-2.124 4.539,-6.982 2.339,-10.176 l 0,0 z"
           id="path91"
           inkscape:connector-curvature="0"
           style="fill:#ffffff" />
      </g>
    </g>
    <path
       style="fill:url(#linearGradient3765-8);fill-opacity:1;stroke:none"
       d="m 49.642837,639.86221 90.000033,-88.57143 1412.85713,0 0,511.42862 -1557.1428726,0 0,-370.00007 z"
       id="rect3020"
       inkscape:connector-curvature="0"
       sodipodi:nodetypes="ccccccc" />
    <path
       style="fill:none;stroke:#434343;stroke-width:5;stroke-linecap:butt;stroke-linejoin:miter;stroke-miterlimit:4;stroke-opacity:1;stroke-dasharray:5, 5;stroke-dashoffset:0"
       d="M 1104.7684,813.55366 834.71391,697.49718"
       id="path3984"
       inkscape:connector-curvature="0" />
    <rect
       style="opacity:0.40143367;fill:url(#radialGradient3899);fill-opacity:1;stroke:none"
       id="rect3891"
       width="1551.4286"
       height="200"
       x="-1535.3572"
       y="-1071.2908"
       transform="scale(-1,-1)" />
    <path
       style="opacity:0.48387098;fill:#333333;stroke:none;filter:url(#filter3949)"
       d="M -5.2561626,693.69912 138.66306,551.90406 c 1.3868,-1.36634 6.68661,122.07927 6.68661,122.07927 z"
       id="path3945"
       inkscape:connector-curvature="0"
       sodipodi:nodetypes="cscc" />
    <path
       sodipodi:nodetypes="cscc"
       inkscape:connector-curvature="0"
       id="path3947"
       d="M -4.3586326,692.80159 139.56059,551.00653 c 1.3868,-1.36634 6.68661,122.07927 6.68661,122.07927 z"
       style="fill:#ffffff;stroke:none" />
    <path
       style="fill:none;stroke:#434343;stroke-width:5;stroke-linecap:butt;stroke-linejoin:miter;stroke-miterlimit:4;stroke-opacity:1;stroke-dasharray:5, 5;stroke-dashoffset:0"
       d="M 1556.7191,951.92869 1286.6646,835.87221"
       id="path3984-3"
       inkscape:connector-curvature="0" />
    <rect
       style="fill:#800080;fill-opacity:1;stroke:none"
       id="rect3108"
       width="402.85715"
       height="111.42857"
       x="957.26111"
       y="754.13293"
       ry="14.860203" />
    <path
       style="fill:none;stroke:#434343;stroke-width:5;stroke-linecap:butt;stroke-linejoin:miter;stroke-miterlimit:4;stroke-opacity:1;stroke-dasharray:5, 5;stroke-dashoffset:0"
       d="M 811.2794,670.71491 786.72902,583.67255"
       id="path3984-3-9"
       inkscape:connector-curvature="0"
       sodipodi:nodetypes="cc" />
    <path
       style="fill:none;stroke:#434343;stroke-width:5;stroke-linecap:butt;stroke-linejoin:miter;stroke-miterlimit:4;stroke-opacity:1;stroke-dasharray:5, 5;stroke-dashoffset:0"
       d="m 803.46792,674.0627 194.17145,-8.92742"
       id="path3984-3-9-1-1"
       inkscape:connector-curvature="0"
       sodipodi:nodetypes="cc" />
    <path
       style="fill:none;stroke:#434343;stroke-width:5;stroke-linecap:butt;stroke-linejoin:miter;stroke-miterlimit:4;stroke-opacity:1;stroke-dasharray:5, 5;stroke-dashoffset:0"
       d="M 642.5211,763.09931 789.82359,684.98437"
       id="path3984-3-9-1"
       inkscape:connector-curvature="0"
       sodipodi:nodetypes="cc" />
    <rect
       style="fill:#7ab51d;fill-opacity:1;stroke:none"
       id="rect3108-6"
       width="213.4928"
       height="75.718887"
       x="691.14185"
       y="639.55103"
       ry="10.097931" />
    <rect
       style="fill:#ffb300;fill-opacity:1;stroke:none"
       id="rect3108-6-6"
       width="213.4928"
       height="75.718887"
       x="1471.1753"
       y="918.53302"
       ry="10.097931" />
    <rect
       style="fill:#89cb21;fill-opacity:1;stroke:none"
       id="rect3108-6-8"
       width="110.82745"
       height="48.936623"
       x="600.75177"
       y="737.75262"
       ry="6.526227" />
    <rect
       style="fill:#89cb21;fill-opacity:1;stroke:none"
       id="rect3108-6-8-7"
       width="110.82745"
       height="48.936623"
       x="721.27197"
       y="568.13159"
       ry="6.526227" />
    <rect
       style="fill:#89cb21;fill-opacity:1;stroke:none"
       id="rect3108-6-8-4"
       width="110.82745"
       height="48.936623"
       x="928.83453"
       y="637.31915"
       ry="6.526227" />
  </g>
</svg>
